# xmcd
#
# Track frame offsets: 
#        150
#        16366
#        37028
#        55676
#        66785
#        83206
#        98934
#        120593
#        142419
#        159913
#
# Disc length: 2440 seconds
#
# Revision: 2
# Processed by: cddbd v1.5.2PL0 Copyright (c) Steve Scherf et al.
# Submitted via: ExactAudioCopy v1.0b3
#
DISCID=8409860a
DTITLE=Maynard Brothers - Nasty Packages
DYEAR=2003
DGENRE=Blues
TTITLE0=Don't Mind Living Alone
TTITLE1=Some Days You  Burn
TTITLE2=Nasty Packages
TTITLE3=Sad But True
TTITLE4=Waitin' Such Awhile
TTITLE5=Ludmilla's Weddiing
TTITLE6=Leave Me With Something Baby
TTITLE7=Waitin' On A Bone
TTITLE8=Drifting Back
TTITLE9=Song For Allison
EXTD=
EXTT0=
EXTT1=
EXTT2=
EXTT3=
EXTT4=
EXTT5=
EXTT6=
EXTT7=
EXTT8=
EXTT9=
PLAYORDER=
